<?xml version="1.0" standalone="no"?>
<!DOCTYPE svg PUBLIC "-//W3C//DTD SVG 20010904//EN"
 "http://www.w3.org/TR/2001/REC-SVG-20010904/DTD/svg10.dtd">
<svg version="1.0" xmlns="http://www.w3.org/2000/svg"
 width="512.000000pt" height="512.000000pt" viewBox="0 0 512.000000 512.000000"
 preserveAspectRatio="xMidYMid meet">
<metadata>
Created by potrace 1.11, written by Peter Selinger 2001-2013
</metadata>
<g transform="translate(0.000000,512.000000) scale(0.100000,-0.100000)"
fill="#000000" stroke="none">
<path d="M2379 5116 c-2 -2 -35 -6 -74 -10 -662 -58 -1309 -408 -1736 -939
-82 -101 -219 -299 -219 -316 0 -5 -4 -11 -8 -13 -11 -4 -123 -236 -162 -333
-86 -215 -141 -443 -167 -685 -15 -136 -8 -503 11 -615 3 -16 8 -43 10 -60 30
-215 122 -497 236 -726 250 -502 650 -901 1152 -1151 65 -32 120 -58 123 -58
3 0 24 -9 48 -19 158 -72 415 -140 622 -166 28 -4 77 -10 110 -15 60 -8 467
-5 515 4 14 2 45 7 70 11 64 9 88 13 150 25 30 6 64 13 75 15 74 12 284 80
410 132 182 75 388 194 562 325 198 149 389 345 538 553 63 88 185 289 185
305 0 6 4 10 10 10 5 0 9 3 8 8 -1 4 14 41 34 83 96 202 185 505 213 722 27
207 27 559 1 712 -3 17 -8 44 -10 60 -3 17 -10 55 -16 85 -6 30 -14 66 -16 80
-12 61 -74 266 -99 325 -6 17 -25 62 -41 100 -35 85 -143 298 -167 329 -5 6
-30 45 -57 86 -146 225 -397 486 -630 655 -30 22 -56 43 -58 47 -2 5 -9 8 -16
8 -7 0 -30 13 -52 30 -21 16 -44 30 -51 30 -6 0 -13 4 -15 9 -4 11 -259 140
-338 171 -196 79 -432 142 -620 166 -25 3 -56 8 -70 10 -29 6 -456 15 -461 10z
m426 -571 c99 -14 213 -37 295 -59 155 -41 423 -163 560 -255 301 -203 536
-471 696 -796 58 -118 133 -323 148 -400 3 -16 15 -79 26 -140 31 -155 33
-520 5 -655 -8 -40 -15 -73 -20 -105 -20 -109 -90 -308 -156 -445 -199 -408
-518 -727 -934 -933 -137 -68 -370 -143 -500 -162 -22 -3 -46 -8 -53 -10 -54
-19 -397 -27 -522 -12 -137 15 -159 19 -288 52 -360 92 -683 280 -939 547 -83
87 -123 134 -123 146 0 5 -6 12 -13 15 -15 6 -137 180 -137 195 0 6 -4 12 -9
14 -18 6 -141 276 -180 393 -40 120 -73 275 -90 415 -9 75 -7 403 3 450 2 14
7 43 11 65 92 628 496 1185 1075 1479 149 76 356 150 475 170 17 3 55 10 85
16 30 6 87 14 125 17 39 3 72 7 74 10 7 5 336 -5 386 -12z"/>
<path d="M2063 3445 c-66 -28 -63 24 -63 -885 0 -887 -2 -852 50 -880 51 -27
82 -16 261 90 96 57 183 108 194 114 11 6 27 16 35 22 8 7 31 21 51 32 71 39
84 47 89 52 3 3 161 99 351 213 370 222 365 218 376 307 10 89 11 88 -454 401
-232 156 -446 299 -475 317 -29 17 -63 41 -75 52 -13 11 -25 20 -28 20 -3 0
-33 19 -68 43 -167 115 -190 125 -244 102z"/>
</g>
</svg>
